<svg xmlns="http://www.w3.org/2000/svg" viewBox="0 0 36.1 31.59"><defs><style>.cls-1{fill:#fff;}</style></defs><g id="Слой_2" data-name="Слой 2"><g id="Слой_1-2" data-name="Слой 1"><path class="cls-1" d="M33,0H3.08A3.08,3.08,0,0,0,0,3.08V21.56a3.08,3.08,0,0,0,3.08,3.08h12v2.79H12.66a2.08,2.08,0,0,0,0,4.16H23.44a2.08,2.08,0,0,0,0-4.16H21V24.64H33a3.08,3.08,0,0,0,3.08-3.08V3.08A3.08,3.08,0,0,0,33,0ZM3.63,18a2.95,2.95,0,1,1,3,2.95A2.95,2.95,0,0,1,3.63,18Zm28.89,3H14.39a.56.56,0,0,0-.14-.61l-1.19-1.05a6.72,6.72,0,0,0,0-2.73l1.19-1a.55.55,0,0,0,.11-.68l-1.21-2.1a.56.56,0,0,0-.65-.24l-1.5.5a6.48,6.48,0,0,0-2.36-1.36L8.32,10.2a.55.55,0,0,0-.54-.44H5.37a.55.55,0,0,0-.54.44l-.32,1.55a6.42,6.42,0,0,0-.94.39V3.57h29v17.5Z"/><path class="cls-1" d="M16.23,12.16a.31.31,0,0,0-.38.14l-.71,1.24a.32.32,0,0,0,.06.4l.7.62a3.65,3.65,0,0,0,0,1.61l-.7.61a.33.33,0,0,0-.06.41l.71,1.23a.33.33,0,0,0,.38.15l.89-.3a3.82,3.82,0,0,0,1.38.8l.19.92a.33.33,0,0,0,.32.26h1.42a.32.32,0,0,0,.32-.26l.19-.92a3.86,3.86,0,0,0,1.39-.8l.88.3a.33.33,0,0,0,.38-.15l.72-1.23a.34.34,0,0,0-.07-.41l-.7-.62a3.44,3.44,0,0,0,.09-.8,3.57,3.57,0,0,0-.09-.8l.7-.62a.32.32,0,0,0,.07-.4l-.72-1.24a.31.31,0,0,0-.38-.14l-.88.29a4,4,0,0,0-1.39-.8l-.19-.91a.32.32,0,0,0-.32-.26H19a.32.32,0,0,0-.32.26l-.19.91a3.88,3.88,0,0,0-1.38.8Zm3.49,1.47A1.74,1.74,0,1,1,18,15.36,1.73,1.73,0,0,1,19.72,13.63Z"/><path class="cls-1" d="M11.81,8.12a2.44,2.44,0,0,0-.06.55,2.57,2.57,0,0,0,.06.55l-.48.42a.22.22,0,0,0,0,.28l.49.84a.22.22,0,0,0,.26.1l.6-.2a2.86,2.86,0,0,0,1,.55l.13.63a.21.21,0,0,0,.21.17h1a.23.23,0,0,0,.22-.17l.12-.63a2.86,2.86,0,0,0,1-.55l.6.2a.24.24,0,0,0,.27-.1l.48-.84a.22.22,0,0,0,0-.28l-.48-.42a2.6,2.6,0,0,0,0-1.11l.48-.42a.21.21,0,0,0,0-.28l-.48-.84a.24.24,0,0,0-.27-.1l-.6.2a2.86,2.86,0,0,0-1-.55l-.12-.62a.23.23,0,0,0-.22-.18h-1a.23.23,0,0,0-.22.18l-.12.62a2.86,2.86,0,0,0-1,.55l-.6-.2a.22.22,0,0,0-.26.1l-.49.84a.21.21,0,0,0,0,.28Zm2.62-.64a1.19,1.19,0,1,1-1.19,1.19A1.19,1.19,0,0,1,14.43,7.48Z"/></g></g></svg>