<svg xmlns="http://www.w3.org/2000/svg" viewBox="0 0 45.85 43.92"><defs><style>.cls-1,.cls-3{fill:#fff;stroke-linejoin:round;}.cls-1,.cls-2,.cls-3{stroke:#000;stroke-width:0.47px;}.cls-1{fill-rule:evenodd;}.cls-2{fill:none;stroke-miterlimit:10;}</style></defs><g id="Слой_2" data-name="Слой 2"><g id="Слой_1-2" data-name="Слой 1"><path class="cls-1" d="M.24,14.79,18,.24l21.2,25.81L21.44,40.6Z"/><path class="cls-2" d="M7.26,14.24,18.47,5.05"/><path class="cls-2" d="M5.1,16l1.06-.86"/><path class="cls-2" d="M8.53,15.78,19.73,6.6"/><path class="cls-2" d="M6.37,17.57l1.06-.87"/><path class="cls-2" d="M9.79,17.33,21,8.14"/><path class="cls-2" d="M7.64,19.12l1.07-.88"/><path class="cls-2" d="M11.07,18.88,22.28,9.69"/><path class="cls-2" d="M8.91,20.65,10,19.79"/><path class="cls-2" d="M12.34,20.42l11.21-9.19"/><path class="cls-2" d="M10.16,22.21l1.07-.89"/><path class="cls-2" d="M13.61,22l11.21-9.19"/><path class="cls-2" d="M11.46,23.75l1-.88"/><path class="cls-2" d="M14.89,23.51l11.19-9.19"/><path class="cls-2" d="M12.71,25.3l1.07-.89"/><path class="cls-2" d="M16.16,25.06l11.2-9.19"/><path class="cls-2" d="M14,26.85,15.05,26"/><path class="cls-2" d="M17.41,26.6l11.22-9.18"/><path class="cls-2" d="M15.25,28.39l1.06-.87"/><path class="cls-2" d="M18.68,28.15,29.89,19"/><path class="cls-2" d="M16.53,29.94l1-.89"/><path class="cls-2" d="M20,29.71l11.22-9.2"/><path class="cls-2" d="M17.8,31.48l1.06-.87"/><path class="cls-2" d="M21.23,31.24l11.21-9.19"/><path class="cls-2" d="M19.06,33l1.07-.89"/><path class="cls-2" d="M22.49,32.8,33.7,23.6"/><path class="cls-2" d="M20.34,34.57l1.06-.87"/><path class="cls-1" d="M2.62,22.31,17.29,4.7,43,26.06,28.3,43.68Z"/><path class="cls-2" d="M9.42,20.45,18.68,9.3"/><path class="cls-2" d="M7.63,22.61l.87-1.07"/><path class="cls-2" d="M10.94,21.73l9.29-11.15"/><path class="cls-2" d="M9.17,23.88,10,22.83"/><path class="cls-2" d="M12.48,23l9.29-11.15"/><path class="cls-2" d="M10.7,25.17l.88-1.07"/><path class="cls-2" d="M14,24.3l9.29-11.14"/><path class="cls-2" d="M12.24,26.44l.87-1.05"/><path class="cls-2" d="M15.56,25.56l9.29-11.13"/><path class="cls-2" d="M13.78,27.72l.87-1"/><path class="cls-2" d="M17.09,26.86l9.29-11.15"/><path class="cls-2" d="M15.32,29,16.19,28"/><path class="cls-2" d="M18.63,28.13,27.92,17"/><path class="cls-2" d="M16.86,30.28l.87-1.06"/><path class="cls-2" d="M20.17,29.41l9.29-11.14"/><path class="cls-2" d="M18.38,31.55l.89-1"/><path class="cls-2" d="M21.72,30.69,31,19.54"/><path class="cls-2" d="M19.92,32.84l.89-1.05"/><path class="cls-2" d="M23.26,32l9.28-11.14"/><path class="cls-2" d="M21.46,34.12l.89-1.06"/><path class="cls-2" d="M24.8,33.26l9.28-11.15"/><path class="cls-2" d="M23,35.39l.88-1"/><path class="cls-2" d="M26.34,34.53,35.6,23.38"/><path class="cls-2" d="M24.54,36.68l.88-1.06"/><path class="cls-2" d="M27.87,35.81l9.27-11.14"/><path class="cls-2" d="M26.08,38,27,36.9"/><path class="cls-3" d="M45.61,18.47,12.37,15.05,10,37.88,43.26,41.3Z"/><path class="cls-2" d="M14.66,32.5l1.47-14.41"/><path class="cls-2" d="M14.38,35.3l.13-1.38"/><path class="cls-2" d="M16.64,32.7l1.49-14.42"/><path class="cls-2" d="M16.38,35.49l.13-1.36"/><path class="cls-2" d="M18.64,32.92l1.48-14.43"/><path class="cls-2" d="M18.36,35.7l.14-1.37"/><path class="cls-2" d="M20.62,33.13l1.5-14.43"/><path class="cls-2" d="M20.34,35.9l.14-1.37"/><path class="cls-2" d="M22.63,33.32l1.48-14.43"/><path class="cls-2" d="M22.33,36.1l.15-1.36"/><path class="cls-2" d="M24.61,33.52,26.09,19.1"/><path class="cls-2" d="M24.32,36.3l.15-1.36"/><path class="cls-2" d="M26.61,33.74l1.48-14.43"/><path class="cls-2" d="M26.31,36.52l.16-1.37"/><path class="cls-2" d="M28.6,33.93l1.48-14.41"/><path class="cls-2" d="M28.31,36.72l.13-1.37"/><path class="cls-2" d="M30.58,34.14l1.47-14.43"/><path class="cls-2" d="M30.29,36.92l.14-1.36"/><path class="cls-2" d="M32.58,34.35l1.47-14.43"/><path class="cls-2" d="M32.29,37.12l.14-1.35"/><path class="cls-2" d="M34.57,34.56,36,20.12"/><path class="cls-2" d="M34.28,37.33,34.41,36"/><path class="cls-2" d="M36.54,34.74,38,20.34"/><path class="cls-2" d="M36.27,37.55l.13-1.39"/><path class="cls-2" d="M38.54,35,40,20.53"/><path class="cls-2" d="M38.26,37.74l.14-1.36"/></g></g></svg>