<svg xmlns="http://www.w3.org/2000/svg" xmlns:xlink="http://www.w3.org/1999/xlink" viewBox="0 0 38.14 28.13"><defs><style>.cls-1{fill:none;}.cls-2{clip-path:url(#clip-path);}.cls-3{fill:#fff;}</style><clipPath id="clip-path" transform="translate(0 0)"><rect class="cls-1" width="38.14" height="28.13"/></clipPath></defs><g id="Слой_2" data-name="Слой 2"><g id="Слой_1-2" data-name="Слой 1"><g class="cls-2"><path class="cls-3" d="M38.14,13.44v1.25l0,.21c-.06.54-.11,1.09-.2,1.64A13.17,13.17,0,0,1,36,21.45a14,14,0,0,1-5.79,5.25A13.65,13.65,0,0,1,25.78,28l-1,.11H11.34a1.2,1.2,0,0,0-.2,0,11.61,11.61,0,0,1-3.89-.94,11.8,11.8,0,0,1-6-5.73,11.17,11.17,0,0,1-1.12-3.7c0-.31-.07-.63-.11-.94V15.57c0-.07,0-.13,0-.2A11.3,11.3,0,0,1,.77,12,11.86,11.86,0,0,1,6.71,5.44a11.58,11.58,0,0,1,4.65-1.21,13.63,13.63,0,0,1,2.39.11A.3.3,0,0,0,14,4.27a14.12,14.12,0,0,1,3.9-2.83A13.66,13.66,0,0,1,22.38.11L23.49,0h1.14l.23,0c.56.07,1.13.11,1.69.2a13.66,13.66,0,0,1,4.89,1.86,13.92,13.92,0,0,1,5.27,5.8A13.55,13.55,0,0,1,38,12.36c0,.36.08.72.11,1.08M16.82,5.31s0,.05,0,.05A15.55,15.55,0,0,1,19.1,6.72a.23.23,0,0,0,.21,0A8.81,8.81,0,0,1,31,8.72a8.32,8.32,0,0,1,1.72,6.78A8.69,8.69,0,0,1,30.63,20a8.53,8.53,0,0,1-7.82,2.87,8.2,8.2,0,0,1-4.9-2.45l-5.26-5.27a1.41,1.41,0,0,0-.83-.46,1.32,1.32,0,0,0-1.37.75,1.21,1.21,0,0,0,.3,1.48c1.95,1.91,3.88,3.85,5.83,5.76a9.43,9.43,0,0,0,1.07.92,10.26,10.26,0,0,0,4.77,1.83,11.54,11.54,0,0,0,4.06-.16,11.43,11.43,0,0,0,8.86-9.64,11.09,11.09,0,0,0-.1-3.68,10.93,10.93,0,0,0-2.58-5.28A11.17,11.17,0,0,0,23,2.75,10.73,10.73,0,0,0,18.81,4a11.14,11.14,0,0,0-2,1.33m-.94,20.15-.16-.15c-.8-.75-1.6-1.5-2.39-2.26a.65.65,0,0,0-.51-.22,9.48,9.48,0,0,1-2.38-.15A6.67,6.67,0,0,1,13.08,9.61a6.39,6.39,0,0,1,3.62,1.87c1.22,1.26,2.48,2.48,3.72,3.73a1.08,1.08,0,0,0,1,.36,1.27,1.27,0,0,0,1.09-.8,1.2,1.2,0,0,0-.28-1.32c-1.3-1.32-2.56-2.66-3.91-3.92A8.86,8.86,0,0,0,9.19,7.4,9.25,9.25,0,0,0,12,25.47h3.87" transform="translate(0 0)"/></g></g></g></svg>