<svg xmlns="http://www.w3.org/2000/svg" viewBox="0 0 41.88 26.12"><defs><style>.cls-1{fill:none;stroke:#fff;stroke-miterlimit:10;}.cls-2{fill:#fff;}</style></defs><g id="Слой_2" data-name="Слой 2"><g id="Слой_1-2" data-name="Слой 1"><path class="cls-1" d="M11.19,13.41A8.37,8.37,0,0,0,8.06,12.2,11.22,11.22,0,0,0,5.8,12c-.81,0-1.64.25-1.89.84a2.5,2.5,0,0,0-.12,1,7.6,7.6,0,0,0,2.67,5.84,4.69,4.69,0,0,0,2.2.9c1.89.23,3.42-.31,4.12-1.83a4.17,4.17,0,0,0,.28-.91,4.07,4.07,0,0,0-.1-1.7,5.42,5.42,0,0,0-1.77-2.73Z"/><path class="cls-1" d="M27.49,15a15.31,15.31,0,0,0-4.88,0,4.74,4.74,0,0,0-2,.76,2.64,2.64,0,0,0-.8,2.65,6.15,6.15,0,0,0,2.34,3.75,8,8,0,0,0,4.34,1.22,8.5,8.5,0,0,0,2.14-.11,3.27,3.27,0,0,0,1.88-1.05,5.23,5.23,0,0,0,1.26-3.69c-.19-2.3-2.18-3.19-4.27-3.54Z"/><path class="cls-2" d="M36.31,7.53c-.63.93-1.31,1.85-2,2.77-.47.69-1,1.91-1.73,2.28-.33.16-.61,0-.92-.08l-.82-.23A11.85,11.85,0,0,0,29.72,12a23.52,23.52,0,0,0-6.8-.31,19.4,19.4,0,0,0-3.3.62,11.54,11.54,0,0,1-1.9.66,4.9,4.9,0,0,1-1.75,0,4.61,4.61,0,0,1-1.4-.79,21.75,21.75,0,0,0-2.43-1.61A10.72,10.72,0,0,0,10,9.8a4.91,4.91,0,0,1-1.74-.44c-.08,0-.23-.18-.23-.28s.19-.24.27-.32c1.63-1.38,3.27-2.69,5-3.92.72-.51,1.41-1,2.18-1.49a7,7,0,0,1,4-.88c1.13.12,1.47,1.16,2.06,1.94A1.82,1.82,0,0,0,24,4.87a2.41,2.41,0,0,0,.28-3.2C23.42.47,21.38.16,20,0a10.77,10.77,0,0,0-2.27,0C13.44.57,10.11,3.86,6.47,5.9c-1.31.74-2.7,1.36-3.94,2.23C.91,8.76-.58,9.78.23,11.39c.18.35.43.68.6,1A3.22,3.22,0,0,1,1,13.64a10.57,10.57,0,0,0,.14,1.13,14,14,0,0,0,.59,2.31,12.05,12.05,0,0,0,2.38,4.1,7,7,0,0,0,3.77,2.28,5.65,5.65,0,0,0,1.23.13c2.82,0,5-1.18,6.09-3.83.35-.84.18-2.1,1.48-1.89.77.12.78,1.39.94,2A7.16,7.16,0,0,0,20,23.67l.32.24a12.17,12.17,0,0,0,7.75,2.18,7.28,7.28,0,0,0,2.24-.55,8.09,8.09,0,0,0,3.4-2.67,7.18,7.18,0,0,0,1.18-3.28,14.87,14.87,0,0,1,.21-1.65c.21-.8.82-1.57.75-2.43,0-.34-.23-.64-.14-1a8.26,8.26,0,0,1,.44-1c.55-1.26,1-2.55,1.64-3.78a9.92,9.92,0,0,1,.6-1.17c.12-.2.41-.69.68-.57s.2.66.23.88c.1.81.71,1.88,1.69,1.38a1.49,1.49,0,0,0,.87-1.49A7.57,7.57,0,0,0,41,5.31c-1.37-2.4-3.85,1.06-4.64,2.22ZM13.06,17.84a4.17,4.17,0,0,1-.28.91c-.7,1.52-2.23,2.06-4.12,1.83a4.69,4.69,0,0,1-2.2-.9,7.63,7.63,0,0,1-2.67-5.84,2.5,2.5,0,0,1,.12-1c.25-.59,1.08-.8,1.89-.84a12,12,0,0,1,2.26.18,8.2,8.2,0,0,1,3.13,1.21A5.42,5.42,0,0,1,13,16.14a3.91,3.91,0,0,1,.1,1.7ZM30.5,22.22a3.36,3.36,0,0,1-1.88,1.05,8.6,8.6,0,0,1-2.15.11,8,8,0,0,1-4.33-1.22,6.06,6.06,0,0,1-2.34-3.75,2.63,2.63,0,0,1,.8-2.66,5,5,0,0,1,2-.75,15.64,15.64,0,0,1,4.88,0c2.09.36,4.08,1.24,4.26,3.54a5.27,5.27,0,0,1-1.25,3.7Z"/><path class="cls-2" d="M7.67,10.56c0-.46-.5-.56-.84-.64l-2.11-.4a7,7,0,0,0-2.21-.46,1.84,1.84,0,0,0-1.43.7,1.66,1.66,0,0,0,.15,1.63,3.48,3.48,0,0,1,.45,1.87c.05.47,0,1.19.38,1.55s.49.16.63-.13,0-.94,0-1.36a3.07,3.07,0,0,1,1.38-2A4.91,4.91,0,0,1,7,11c.29,0,.68,0,.72-.4Z"/><path class="cls-2" d="M25.19,12.54a12.88,12.88,0,0,0-3.05.11,9.57,9.57,0,0,0-2.13.5l-1.36.46c-1,.35-3.52-.79-3,1.32.24,1.07,1.88,1.05,2.66.77a13.19,13.19,0,0,0,1.86-1.07,10.25,10.25,0,0,1,2.52-1,8.56,8.56,0,0,1,2.25-.27c.33,0,1.4.33,1.13-.35-.11-.28-.43-.43-.84-.51Z"/><path class="cls-2" d="M22.11,1.09c-.64.24-.11.88.14,1.22s.31.93.88,1a.88.88,0,0,0,1.07-.61c.12-.78-.7-1.51-1.39-1.65a1.68,1.68,0,0,0-.59,0l-.11,0Z"/><path class="cls-2" d="M37.88,6.19a2.18,2.18,0,0,0-.14.25c-.15.31-.24.86.27.86a2.21,2.21,0,0,0,.7-.32c.48-.24.85-.8,1.44-.79s.45-.7.13-1c-.78-.77-1.92.25-2.4,1Z"/></g></g></svg>