<svg xmlns="http://www.w3.org/2000/svg" viewBox="0 0 30.98 35.59"><defs><style>.cls-1{fill:#fff;stroke:#fff;stroke-miterlimit:10;stroke-width:2px;}</style></defs><g id="Слой_2" data-name="Слой 2"><g id="Слой_1-2" data-name="Слой 1"><path class="cls-1" d="M4.1,25.3c-1.82-1-2.9-2.27-2.85-3.62L1,28.7c-.07,2.11,2.65,4,6.68,5.07l.25-7A16.47,16.47,0,0,1,4.1,25.3Z"/><path class="cls-1" d="M5.22,17.92a8.27,8.27,0,0,1-.94-.48c-1.76-1-2.79-2.24-2.75-3.55l-.24,6.9a2.32,2.32,0,0,0,0,.45c.21,1.39,1.62,2.68,3.79,3.64a17.57,17.57,0,0,0,2.85,1L8.2,19A17.58,17.58,0,0,1,5.22,17.92Z"/><path class="cls-1" d="M14.41,1C7.55.78,1.91,3,1.8,6c-.05,1.34,1,2.6,2.84,3.62.3.16.63.32,1,.48a17.7,17.7,0,0,0,2.86,1L10.93,9l1.14-1L14,6.41l5.6-4.72A26.41,26.41,0,0,0,14.41,1Z"/><path class="cls-1" d="M5.62,10.08c-.34-.16-.67-.31-1-.48C2.83,8.58,1.75,7.32,1.8,6l-.25,7a3.52,3.52,0,0,0,0,.45C1.79,14.8,3.14,16.07,5.24,17c.38.17.77.33,1.2.49a17.68,17.68,0,0,0,1.78.54l.25-7a17,17,0,0,1-2.85-1Z"/><path class="cls-1" d="M19.93,1.78l-.35-.08L14,6.41,12.07,8,10.93,9,8.48,11.06a26.66,26.66,0,0,0,5.55.76c.75,0,1.49,0,2.2,0a21.15,21.15,0,0,0,6.32-1.15c.35-.13.68-.26,1-.41,1.87-.88,3-2.07,3.08-3.4.07-2.12-2.66-4.05-6.7-5.08Z"/><path class="cls-1" d="M23.53,10.26c-.31.14-.64.28-1,.41a21.09,21.09,0,0,1-6.32,1.15c-.71,0-1.45,0-2.2,0a26.66,26.66,0,0,1-5.55-.76l-.25,7a26,26,0,0,0,5.41.76h.14a24.45,24.45,0,0,0,7.41-.8c.43-.13.85-.26,1.23-.41,2.15-.81,3.6-2,3.9-3.32a2.22,2.22,0,0,0,.06-.45l.24-7C26.58,8.19,25.42,9.38,23.53,10.26Z"/><path class="cls-1" d="M23.26,18.16l-1,.42a21.37,21.37,0,0,1-6.32,1.14c-.71,0-1.45,0-2.2,0A27.32,27.32,0,0,1,8.19,19L8,26a25.29,25.29,0,0,0,5.4.76h.14a24.41,24.41,0,0,0,7.41-.8c.43-.13.85-.26,1.23-.41,2.15-.81,3.6-2,3.9-3.32a1.63,1.63,0,0,0,.06-.45l.25-7C26.3,16.09,25.15,17.28,23.26,18.16Z"/><path class="cls-1" d="M23,26q-.46.23-1,.42a21.17,21.17,0,0,1-6.32,1.14c-.72,0-1.45,0-2.21,0a26,26,0,0,1-5.54-.77l-.25,7a26.72,26.72,0,0,0,5.4.76h.15a24.49,24.49,0,0,0,7.41-.8c.43-.13.84-.25,1.22-.4,2.16-.82,3.61-2,3.91-3.33a2.12,2.12,0,0,0,0-.44l.25-7C26,23.93,24.87,25.11,23,26Z"/><path d="M27.18,13.75c-.33,1.45-1.89,2.71-4.22,3.59-.43.16-.86.3-1.33.44a26.66,26.66,0,0,1-8,.87h-.16a29.36,29.36,0,0,1-5.84-.82c-.68-.18-1.33-.37-1.94-.59-.45-.17-.89-.34-1.29-.53-2.27-1-3.74-2.42-4-3.89a2.69,2.69,0,0,1,0-.49l0,1c0,1.42,1.07,2.76,3,3.85.31.17.66.35,1,.52a19.82,19.82,0,0,0,3.22,1.12,29.52,29.52,0,0,0,5.53.81h.47a24.79,24.79,0,0,0,9.34-1.29A10.23,10.23,0,0,0,24,17.86c2-.94,3.18-2.2,3.23-3.63l0-1A2.63,2.63,0,0,1,27.18,13.75Z"/><path d="M27.22,22.26c-.32,1.41-1.77,2.64-4,3.52L22.8,26c-.34.13-.68.24-1.05.35a23.87,23.87,0,0,1-4.75.84c-.45,0-.91.05-1.38.07-.7,0-1.42,0-2.15,0-1,0-2-.11-2.92-.23a26.24,26.24,0,0,1-3.15-.61A19.75,19.75,0,0,1,4.27,25.3c-2.36-1.05-3.91-2.46-4.14-4a2.69,2.69,0,0,1,0-.49l0,1c0,1.46,1.13,2.85,3.13,4a18.43,18.43,0,0,0,4.19,1.6,28.55,28.55,0,0,0,2.84.56c1,.14,2.12.24,3.23.28.72,0,1.42,0,2.12,0,.45,0,.9,0,1.34-.07a23.76,23.76,0,0,0,4.81-.85,14.18,14.18,0,0,0,2.15-.8l.3-.14c1.88-.94,3-2.19,3.08-3.58l0-1c0,.05,0,.1,0,.15a3,3,0,0,1-.06.32Z"/><circle cx="23.19" cy="27.69" r="7.79"/><path d="M23.4,21.51a6.58,6.58,0,0,1,6.34,6.61v-.2a6.57,6.57,0,0,0-13.13-.46v.19a6.62,6.62,0,0,1,6.8-6.14Z"/><path d="M23,34.26a6.58,6.58,0,0,0,6.78-6.14,6.57,6.57,0,0,0-13.12-.46A6.57,6.57,0,0,0,23,34.26Z"/><path d="M21,27.38l-.13,3.67,5.67-2.91-5.45-3.31Z"/><path class="cls-1" d="M21,27.05l-.12,3.68,5.66-2.92-5.45-3.3Z"/></g></g></svg>