<svg xmlns="http://www.w3.org/2000/svg" viewBox="0 0 36.39 35.25"><defs><style>.cls-1{fill:#a5ceca;}.cls-2{fill:none;stroke-width:0.5px;}.cls-2,.cls-5{stroke:#000;}.cls-3{fill:#12a2a3;}.cls-4{fill:#9ecbc6;}.cls-5{fill:#081e3e;stroke-width:0.25px;}.cls-6{fill:#f59c34;}.cls-7{fill:#fff;}.cls-8{fill:#c6c8c5;}.cls-9{fill:#afafad;}.cls-10{fill:#fba030;}.cls-11{fill:#adafac;}.cls-12{fill:#08aabf;}.cls-13{fill:#f9fbfa;}.cls-14{fill:#c4c4c4;}</style></defs><g id="Слой_2" data-name="Слой 2"><g id="Слой_1-2" data-name="Слой 1"><path class="cls-1" d="M5.26,15.16H32.47C32.47,3.67,22.57.84,17.62.85,7.55,2.22,5.18,11,5.26,15.16Z"/><path class="cls-2" d="M21.9,10c-.34,1.45-1.39,4.33-2.85,4.31s-2.47-2.73-2.79-4.08"/><path class="cls-1" d="M9.22,35.25H27.63V22.76a3.21,3.21,0,0,0-2.45-2.33H11.39a5.35,5.35,0,0,0-2.17,2.33Z"/><path class="cls-2" d="M25.78,25,26,33.31l-16.24.37.34-8.44Z"/><circle class="cls-3" cx="25.12" cy="22.65" r="0.74"/><circle class="cls-4" cx="25.12" cy="22.65" r="0.34"/><circle class="cls-3" cx="11.5" cy="22.65" r="0.74"/><circle class="cls-4" cx="11.5" cy="22.65" r="0.34"/><path class="cls-5" d="M25.38,26.53,25,33.25H11.53l.23-6.72Z"/><circle class="cls-6" cx="23.24" cy="28.12" r="0.85"/><circle class="cls-6" cx="19.82" cy="28.12" r="0.85"/><circle class="cls-6" cx="23.01" cy="31.54" r="0.85"/><circle class="cls-6" cx="16.35" cy="31.54" r="0.85"/><circle class="cls-6" cx="13.33" cy="31.54" r="0.85"/><circle class="cls-6" cx="13.33" cy="28.35" r="0.85"/><circle class="cls-7" cx="16.57" cy="28.35" r="0.85"/><circle class="cls-7" cx="20.05" cy="31.54" r="0.85"/><path class="cls-8" d="M36.23,34.73C37.31,27.38,31,23.84,27.63,23v3c4.39.83,6,6.21,6.32,8.79Z"/><path class="cls-9" d="M29.94,27l1.87-2L30,23.9l-1.4,2.34Z"/><path class="cls-9" d="M32.05,28.86l2.28-1.34.08,0-1-1.14L31.08,28Z"/><path class="cls-9" d="M35.16,28.69l.91,2.12-2.85.79-.63-1.67Z"/><path class="cls-9" d="M36.31,32.18c0,.84.08,2.52.08,2.56H33.58v-2Z"/><path class="cls-8" d="M.17,35C-1,27.27,5.73,23.54,9.22,22.65v3.1c-4.61.87-6.35,6.53-6.65,9.26Z"/><path class="cls-9" d="M6.79,26.88l-2-2.13,1.91-1.14L8.2,26.07Z"/><path class="cls-9" d="M4.58,28.83l-2.4-1.41-.1,0,1-1.2,2.46,1.68Z"/><path class="cls-9" d="M1.3,28.65.35,30.88l3,.83L4,30Z"/><path class="cls-9" d="M.09,32.32C.06,33.2,0,35,0,35H3V32.85Z"/><path class="cls-10" d="M23.1,18.32c.48-.23.88,1.21,1,2H21.9C22.06,18.51,22.77,18.23,23.1,18.32Z"/><path class="cls-10" d="M14.24,18.32c.48-.23.88,1.21,1,2H13C13.2,18.51,13.91,18.23,14.24,18.32Z"/><path class="cls-8" d="M20.79,20.29V15.22H16.74v5.07Z"/><rect class="cls-11" x="16.74" y="15.9" width="4.05" height="1.42"/><path class="cls-12" d="M19.65,0l.45,9.6H17.68V0Z"/><rect class="cls-11" x="16.74" y="18.69" width="4.05" height="1.42"/><ellipse class="cls-13" cx="25.03" cy="7.27" rx="2.59" ry="2.71"/><ellipse class="cls-13" cx="13.12" cy="7.27" rx="2.59" ry="2.71"/><circle cx="24.95" cy="7.3" r="0.91"/><circle cx="13.04" cy="7.3" r="0.91"/><circle cx="6.82" cy="13.91" r="0.57"/><circle cx="30.93" cy="13.79" r="0.57"/><circle cx="18.94" cy="8.7" r="0.31"/><circle class="cls-12" cx="25.75" cy="12.42" r="1.31"/><circle class="cls-12" cx="12.64" cy="12.42" r="1.31"/><path class="cls-14" d="M10.23,3.16l.51.46L8.28,6.17l-.71-.72Z"/><path class="cls-14" d="M8,2.21,9.6,3.78l-.94.85-1.16-2Z"/><circle class="cls-14" cx="7.16" cy="1.74" r="1.14"/><path class="cls-14" d="M29.53,5.22l-.39.57L26.29,3.68l.62-.79Z"/><path class="cls-14" d="M30.19,2.93,28.83,4.68l-1-.82L29.7,2.45Z"/><circle class="cls-14" cx="30.53" cy="2" r="1.14"/></g></g></svg>