<svg xmlns="http://www.w3.org/2000/svg" viewBox="0 0 39.38 42.91"><defs><style>.cls-1{fill:#7a7a77;}.cls-2{fill:#fff;}</style></defs><g id="Слой_2" data-name="Слой 2"><g id="Слой_1-2" data-name="Слой 1"><path d="M25.27,42.91H14.11l2.23-8.85H23Z"/><path class="cls-1" d="M23.81,37.14H15.55l.78-3.08H23Z"/><path class="cls-2" d="M39.38,9.25v25a1.48,1.48,0,0,1-1.48,1.48H1.48A1.48,1.48,0,0,1,0,34.28v-25A1.47,1.47,0,0,1,1.48,7.78H37.9a1.47,1.47,0,0,1,1.48,1.47Z"/><path class="cls-1" d="M27.47,9.45a7.78,7.78,0,1,1-15.56,0,7.07,7.07,0,0,1,.19-1.67H27.29A7.7,7.7,0,0,1,27.47,9.45Z"/><path d="M17.53,24.28a.49.49,0,0,0,.5.49h17.9a.49.49,0,0,0,.5-.49V15.93a.5.5,0,0,0-1,0v7.86H18A.49.49,0,0,0,17.53,24.28Z"/><path d="M25.1,30.79V27.6a.48.48,0,0,0-.49-.49H15V21.45h4a.49.49,0,0,0,0-1H14.54a.48.48,0,0,0-.49.49v2.82H6.5a.48.48,0,0,0-.49.49.48.48,0,0,0,.49.49h7.55V27.6a.49.49,0,0,0,.49.5h9.58v2.69a.49.49,0,0,0,.49.5.49.49,0,0,0,.49-.5Z"/><path d="M11.32,27.29H3.71V23a.48.48,0,0,0-.49-.49.48.48,0,0,0-.49.49v4.77a.48.48,0,0,0,.49.49h4.6V30.8a.49.49,0,0,0,.49.5.49.49,0,0,0,.49-.5V28.27h2.52a.48.48,0,0,0,.49-.49A.48.48,0,0,0,11.32,27.29Z"/><path d="M6,20.93a.48.48,0,0,0,.49.49h4.36a.49.49,0,0,0,0-1H7v-7.8a.49.49,0,0,0-.49-.49.48.48,0,0,0-.49.49Z"/><path d="M10.14,18.08H22.35V21a.43.43,0,0,0,.15.34.47.47,0,0,0,.34.15h0l9.94,0a.49.49,0,0,0,.5-.49V12.51a.5.5,0,0,0-1,0v7.93l-9,0V18.08h5.74a.5.5,0,0,0,0-1H10.14a.5.5,0,0,0,0,1Z"/><path d="M39.38,28.1v-1H28a.5.5,0,0,0,0,1H39.38Z"/><path d="M3.22,20.32a.49.49,0,0,0,.49-.49V16.47A.48.48,0,0,0,3.22,16a.48.48,0,0,0-.49.49v2.87H0v1Z"/><path d="M39.38,9.25v3.27H0V9.25A1.47,1.47,0,0,1,1.48,7.78H37.9a1.47,1.47,0,0,1,1.48,1.47Z"/><path d="M27.47,9.45a7.75,7.75,0,0,1-.63,3.06H12.54a7.82,7.82,0,0,1-.63-3.06,7.07,7.07,0,0,1,.19-1.67H27.29a7.7,7.7,0,0,1,.18,1.67Z"/><path d="M0,30.79v3.49a1.48,1.48,0,0,0,1.48,1.48H37.9a1.48,1.48,0,0,0,1.48-1.48V30.79Z"/><path class="cls-2" d="M3.75,10.64a.48.48,0,0,0,.49-.49h0a.48.48,0,0,0-.49-.49.48.48,0,0,0-.49.49h0A.48.48,0,0,0,3.75,10.64Z"/><path class="cls-2" d="M5.65,10.64a.48.48,0,0,0,.49-.49h0a.48.48,0,0,0-.49-.49.48.48,0,0,0-.49.49h0A.48.48,0,0,0,5.65,10.64Z"/><path class="cls-2" d="M7.55,10.64A.48.48,0,0,0,8,10.15H8a.48.48,0,0,0-.49-.49.48.48,0,0,0-.49.49h0A.49.49,0,0,0,7.55,10.64Z"/><circle class="cls-2" cx="19.69" cy="7.78" r="7.78"/><circle cx="19.69" cy="7.78" r="5.77"/><path class="cls-2" d="M17.39,9.45A.47.47,0,0,1,17,9.3L15.86,8.12a.48.48,0,0,1,0-.7L17,6.24a.49.49,0,1,1,.7.7l-.84.84.84.83a.48.48,0,0,1,0,.7.54.54,0,0,1-.35.14Z"/><path class="cls-2" d="M22,9.45a.46.46,0,0,1-.34-.15.48.48,0,0,1,0-.7l.84-.83-.84-.84a.49.49,0,0,1,.7-.7l1.18,1.18a.48.48,0,0,1,0,.7L22.35,9.29A.5.5,0,0,1,22,9.45Z"/><path class="cls-2" d="M19,9.45a.57.57,0,0,1-.25-.06.49.49,0,0,1-.18-.67l1.34-2.37a.49.49,0,1,1,.85.48L19.44,9.2a.48.48,0,0,1-.42.25Z"/></g></g></svg>