<svg xmlns="http://www.w3.org/2000/svg" viewBox="0 0 41.83 28.66"><defs><style>.cls-1{fill:#fff;}</style></defs><g id="Слой_2" data-name="Слой 2"><g id="Слой_1-2" data-name="Слой 1"><path class="cls-1" d="M38,21.69V1.55A1.55,1.55,0,0,0,36.4,0h-31A1.55,1.55,0,0,0,3.87,1.55V21.69L0,26.34a2.32,2.32,0,0,0,2.32,2.32H39.5a2.32,2.32,0,0,0,2.33-2.32ZM24,27.89H17.82a.39.39,0,0,1-.39-.39.38.38,0,0,1,.39-.39H24a.38.38,0,0,1,.39.39A.39.39,0,0,1,24,27.89Zm-9.48-1.55,1.18-1.42H26.12l1.18,1.42ZM35.77,19a1.35,1.35,0,0,1-1.35,1.35H7.4A1.36,1.36,0,0,1,6.05,19V2.74A1.36,1.36,0,0,1,7.4,1.39h27a1.36,1.36,0,0,1,1.35,1.35Z"/><path class="cls-1" d="M27.47,14.38a3.71,3.71,0,0,1-1-.65,3,3,0,0,1-.55-.68,3.25,3.25,0,0,1-.28-.56c-.08-.19-.12-.4-.18-.59a3.5,3.5,0,0,1-.07-.45,4,4,0,0,1,.07-1,4,4,0,0,1,.27-.76A3.28,3.28,0,0,1,27,8.33l.14-.08-.09-.1A3.84,3.84,0,0,0,26,7.22a6.59,6.59,0,0,0-.71-.34,3.52,3.52,0,0,0-.43-.13c-.14,0-.29,0-.43-.06a3.56,3.56,0,0,0-1.08.08,4.25,4.25,0,0,0-.51.14c-.14,0-.27.1-.4.15s-.24.09-.36.12l-.56.14a2.17,2.17,0,0,1-1-.07,3.22,3.22,0,0,1-.44-.14l-.52-.17a3.5,3.5,0,0,0-.46-.14l-.56-.1a3,3,0,0,0-1.19.1c-.2.06-.39.15-.59.23a3.71,3.71,0,0,0-.84.53,4.47,4.47,0,0,0-.88,1,2.8,2.8,0,0,0-.41.76c-.07.21-.14.41-.2.63s-.08.33-.11.5,0,.39-.05.58,0,.47,0,.69,0,.44.05.66,0,.41.09.62.07.29.11.43.1.42.17.63.17.47.26.7.27.61.42.9a10.57,10.57,0,0,0,.94,1.45,4.89,4.89,0,0,0,.78.86,2.38,2.38,0,0,0,1.18.6,2.07,2.07,0,0,0,1.13-.15l.54-.23a3.42,3.42,0,0,1,.94-.24A3.28,3.28,0,0,1,22,18a5.33,5.33,0,0,1,.63.23,3.89,3.89,0,0,0,.89.3,1.81,1.81,0,0,0,1.2-.24,3.12,3.12,0,0,0,.87-.71c.24-.29.47-.58.69-.89a8.13,8.13,0,0,0,.62-1c.23-.4.43-.83.63-1.25a.06.06,0,0,0,0-.1Z"/><path class="cls-1" d="M21.54,6.66a3.15,3.15,0,0,0,.76-.37,3.27,3.27,0,0,0,.87-.83,3.89,3.89,0,0,0,.57-1.11,2.36,2.36,0,0,0,.12-.93,2.24,2.24,0,0,0,0-.26c0-.11,0-.12-.12-.11a5.48,5.48,0,0,0-.67.17,6,6,0,0,0-.72.35,3.43,3.43,0,0,0-1.24,1.27,3.36,3.36,0,0,0-.34.78,2.35,2.35,0,0,0-.09.4,2.58,2.58,0,0,0,0,.68c0,.06,0,.09.09.09A2.54,2.54,0,0,0,21.54,6.66Z"/></g></g></svg>